<svg width="148" height="161" viewBox="0 0 148 161" fill="none" xmlns="http://www.w3.org/2000/svg">
<path d="M146.859 81.0956C147.083 78.6807 147.252 76.2097 147.252 73.7386C147.252 71.2676 147.139 68.7965 146.915 66.3817C124.451 58.4069 120.014 48.0735 130.46 26.845C127.483 23.2507 124.17 19.9373 120.576 16.9608C99.3471 27.3504 89.0137 22.9138 81.0951 0.449761C78.6802 0.225121 76.2092 0.0566406 73.7382 0.0566406C71.2671 0.0566406 68.7961 0.168961 66.3812 0.393601C58.4065 22.8576 48.073 27.2943 26.8445 16.8485C23.2503 19.825 19.9368 23.1384 16.9603 26.6765C27.3499 47.9612 22.9133 58.2946 0.39312 66.157C0.16848 68.5719 0 71.0429 0 73.514C0 75.985 0.11232 78.4561 0.33696 80.871C22.801 88.8457 27.2376 99.1791 16.7919 120.408C19.7683 124.002 23.0818 127.315 26.676 130.292C37.8519 124.844 46.0512 123.44 52.3973 126.698V119.734C34.9316 111.703 22.801 94.0124 22.801 73.514C22.8571 45.434 45.602 22.7453 73.682 22.8015C101.762 22.8576 124.451 45.6024 124.395 73.6825C124.395 94.1247 112.264 111.703 94.8543 119.734V126.641C101.2 123.553 109.344 124.9 120.407 130.404C124.001 127.428 127.315 124.17 130.291 120.52C119.902 99.2915 124.338 88.958 146.859 81.0956ZM14.0962 77.9506C11.6251 77.9506 9.65953 75.9289 9.65953 73.514C9.65953 71.0429 11.6251 69.0774 14.0962 69.0774C16.5672 69.0774 18.5328 71.0991 18.5328 73.514C18.5328 75.985 16.5111 77.9506 14.0962 77.9506ZM28.3047 112.489C30.0456 110.748 32.8536 110.748 34.5946 112.489C36.3356 114.23 36.3356 117.038 34.5946 118.779C32.8536 120.52 30.0456 120.52 28.3047 118.779C26.5637 117.038 26.5637 114.23 28.3047 112.489ZM34.7069 34.5951C32.966 36.336 30.1579 36.336 28.417 34.5951C26.676 32.8541 26.676 30.0461 28.417 28.3052C30.1579 26.5642 32.966 26.5642 34.7069 28.3052C36.4479 30.0461 36.4479 32.8541 34.7069 34.5951ZM73.682 18.5333C71.211 18.5333 69.2454 16.5115 69.2454 14.0967C69.2454 11.6256 71.2671 9.66001 73.682 9.66001C76.153 9.66001 78.1186 11.6256 78.1186 14.0967C78.1186 16.5677 76.153 18.5333 73.682 18.5333ZM118.891 34.7074C117.15 36.4484 114.342 36.4484 112.601 34.7074C110.86 32.9664 110.86 30.1584 112.601 28.4175C114.342 26.6765 117.15 26.6765 118.891 28.4175C120.632 30.1584 120.632 32.9664 118.891 34.7074ZM118.779 118.891C117.038 120.632 114.23 120.632 112.489 118.891C110.748 117.15 110.748 114.342 112.489 112.601C114.23 110.86 117.038 110.86 118.779 112.601C120.519 114.342 120.519 117.15 118.779 118.891ZM133.156 69.2458C135.627 69.2458 137.592 71.2676 137.592 73.6825C137.592 76.1535 135.627 78.1191 133.156 78.1191C130.684 78.1191 128.719 76.0974 128.719 73.6825C128.719 71.2114 130.684 69.2458 133.156 69.2458Z" fill="#D32F2F"/>
<path d="M95.5842 133.662C95.5842 136.301 93.4501 138.435 90.8106 138.435H56.3845C53.745 138.435 51.6109 136.301 51.6109 133.662C51.6109 131.022 53.745 128.944 56.3845 128.944H90.8106C93.4501 128.888 95.5842 131.022 95.5842 133.662Z" fill="#D32F2F"/>
<path d="M92.4393 144.445C92.4393 147.085 90.3052 149.219 87.6657 149.219H59.5295C56.89 149.219 54.7559 147.085 54.7559 144.445C54.7559 141.805 56.89 139.728 59.5295 139.728H87.7218C90.3052 139.728 92.4393 141.805 92.4393 144.445Z" fill="#D32F2F"/>
<path d="M89.0135 155.228C89.0135 157.867 86.8795 160.001 84.2961 160.001H62.9552C60.3157 160.001 58.1816 157.867 58.1816 155.228C58.1816 152.588 60.3157 150.454 62.9552 150.454H84.2961C86.8795 150.51 89.0135 152.644 89.0135 155.228Z" fill="#D32F2F"/>
<path d="M106.648 72.8395C106.648 91.0915 91.878 105.862 73.626 105.862C55.374 105.862 40.6039 91.0915 40.6039 72.8395C40.6039 54.5875 55.374 39.8174 73.626 39.8174C91.878 39.8174 106.648 54.5875 106.648 72.8395Z" stroke="#D32F2F" stroke-width="3.4651" stroke-miterlimit="10" stroke-linecap="round" stroke-linejoin="round" stroke-dasharray="0.11 0.11"/>
<path d="M91.3164 43.5244C91.3164 53.2963 83.3978 61.2148 73.626 61.2148C63.8541 61.2148 55.9355 53.2963 55.9355 43.5244C55.9355 33.7526 63.8541 25.834 73.626 25.834C83.3978 25.834 91.3164 33.7526 91.3164 43.5244Z" fill="white" stroke="#D32F2F" stroke-width="2.4485" stroke-miterlimit="10"/>
<path d="M91.3164 108.165C91.3164 117.937 83.3978 125.855 73.626 125.855C63.8541 125.855 55.9355 117.937 55.9355 108.165C55.9355 98.3932 63.8541 90.4746 73.626 90.4746C83.3978 90.5308 91.3164 98.4493 91.3164 108.165Z" fill="white" stroke="#D32F2F" stroke-width="2.4485" stroke-miterlimit="10"/>
<path d="M102.492 93.5068C92.7202 93.5068 84.8016 85.5883 84.8016 75.8164C84.8016 66.0445 92.7202 58.126 102.492 58.126C112.264 58.126 120.182 66.0445 120.182 75.8164C120.182 85.5883 112.264 93.5068 102.492 93.5068Z" fill="white" stroke="#D32F2F" stroke-width="2.4485" stroke-miterlimit="10"/>
<path d="M44.7036 93.5068C34.9318 93.5068 27.0132 85.5883 27.0132 75.8164C27.0132 66.0445 34.9318 58.126 44.7036 58.126C54.4755 58.126 62.394 66.0445 62.394 75.8164C62.394 85.5883 54.4755 93.5068 44.7036 93.5068Z" fill="white" stroke="#D32F2F" stroke-width="2.4485" stroke-miterlimit="10"/>
</svg>
