<svg width="48" height="48" viewBox="0 0 48 48" fill="none" xmlns="http://www.w3.org/2000/svg">
<circle cx="24" cy="24" r="24" fill="#D32F2F"/>
<path d="M33.625 23.1252H16.1692L22.8533 16.7587C23.2033 16.4253 23.2169 15.8715 22.8835 15.5215C22.5506 15.1719 21.9967 15.1579 21.6463 15.4913L14.0127 22.7625C13.6824 23.0933 13.5 23.5325 13.5 24.0002C13.5 24.4675 13.6824 24.9072 14.0281 25.2523L21.6467 32.5087C21.816 32.6702 22.033 32.7502 22.25 32.7502C22.481 32.7502 22.712 32.6592 22.8839 32.4785C23.2173 32.1285 23.2037 31.5751 22.8537 31.2417L16.1416 24.8752H33.625C34.108 24.8752 34.5 24.4832 34.5 24.0002C34.5 23.5172 34.108 23.1252 33.625 23.1252Z" fill="white"/>
</svg>
