<svg width="28" height="28" viewBox="0 0 28 28" fill="none" xmlns="http://www.w3.org/2000/svg">
<path d="M5.83333 4.6665H10.5L12.8333 10.4998L9.91667 12.2498C11.1661 14.7833 13.2165 16.8337 15.75 18.0832L17.5 15.1665L23.3333 17.4998V22.1665C23.3333 22.7853 23.0875 23.3788 22.6499 23.8164C22.2123 24.254 21.6188 24.4998 21 24.4998C16.4491 24.2233 12.1568 22.2908 8.93297 19.0669C5.70909 15.843 3.77656 11.5507 3.5 6.99984C3.5 6.381 3.74583 5.78751 4.18342 5.34992C4.621 4.91234 5.21449 4.6665 5.83333 4.6665" stroke="#979797" stroke-width="2.75" stroke-linecap="round" stroke-linejoin="round"/>
<path d="M17.5 8.1665C18.1188 8.1665 18.7123 8.41234 19.1499 8.84992C19.5875 9.28751 19.8333 9.881 19.8333 10.4998" stroke="#979797" stroke-width="2.75" stroke-linecap="round" stroke-linejoin="round"/>
<path d="M17.5 3.5C19.3565 3.5 21.137 4.2375 22.4497 5.55025C23.7625 6.86301 24.5 8.64348 24.5 10.5" stroke="#979797" stroke-width="2.75" stroke-linecap="round" stroke-linejoin="round"/>
</svg>
