<svg width="24" height="24" viewBox="0 0 24 24" fill="none" xmlns="http://www.w3.org/2000/svg">
<path d="M18.8 10.22H16.8V9.29C16.8 9.11162 16.8131 8.99657 16.8304 8.92317C16.835 8.90366 16.8393 8.88958 16.8428 8.87989C16.889 8.85903 17.0161 8.82 17.3 8.82H18.89H19.89V7.82V5.12V4.22352L18.9988 4.12594C18.1991 4.03837 17.3951 3.99627 16.5906 3.99982C15.9289 3.95847 15.2658 4.05941 14.6461 4.29602C14.0138 4.53746 13.4419 4.91431 12.9707 5.40015C12.4994 5.88599 12.1401 6.46906 11.9181 7.10845C11.7019 7.73085 11.6208 8.39196 11.68 9.04776V10.25H10.08H9.08V11.25V14.25V15.25H10.08H11.68V21H3.1C3.08687 21 3.07386 20.9974 3.06173 20.9924C3.0496 20.9874 3.03857 20.98 3.02929 20.9707C3.02 20.9614 3.01264 20.9504 3.00761 20.9383C3.00259 20.9261 3 20.9131 3 20.9V3.1C3 3.07348 3.01054 3.04804 3.02929 3.02929C3.04804 3.01054 3.07348 3 3.1 3H20.9C20.9131 3 20.9261 3.00259 20.9383 3.00761C20.9504 3.01264 20.9614 3.02 20.9707 3.02929C20.98 3.03857 20.9874 3.0496 20.9924 3.06173C20.9974 3.07386 21 3.08687 21 3.1V20.9C21 20.9131 20.9974 20.9261 20.9924 20.9383C20.9874 20.9504 20.98 20.9614 20.9707 20.9707C20.9614 20.98 20.9504 20.9874 20.9383 20.9924C20.9261 20.9974 20.9131 21 20.9 21H16.8V15.22H18.41H19.2884L19.4017 14.3489L19.7917 11.3489L19.9384 10.22H18.8ZM16.8504 8.86199C16.8504 8.86202 16.8501 8.86245 16.8496 8.86324L16.8504 8.86199ZM16.8289 8.88684C16.824 8.89116 16.821 8.89289 16.8207 8.89267C16.8204 8.89245 16.8228 8.89029 16.8289 8.88684Z" stroke="white" stroke-width="2"/>
</svg>
