<svg width="2324" height="439" viewBox="0 0 2324 439" fill="none" xmlns="http://www.w3.org/2000/svg">
<path d="M290 274.5V433.5H483V249H554L428 136.5L290 274.5Z" fill="#D32F2F" stroke="white" stroke-width="9"/>
<path d="M283 262.5L148.5 128L283.5 7L418.5 127.5L283 262.5Z" fill="#D32F2F" stroke="white" stroke-width="9"/>
<path d="M275.5 274.5L138 137L117 154.5V128H84.5V184L12 249H83.5V434L275.5 433.5V274.5Z" fill="#D32F2F" stroke="white" stroke-width="9"/>
<path d="M122.59 338.708C141.15 360.198 171.2 362.108 191.47 338.828C190.98 344.228 190.6 348.828 190.1 353.518C190.02 354.238 189.45 355.408 188.95 355.518C183.25 356.518 183.19 361.178 182.51 365.758C174.89 365.758 167.4 365.548 159.94 365.888C157.81 365.988 154.71 367.138 153.94 368.738C152.66 371.278 152.74 374.568 156.02 376.618C156.508 376.984 156.907 377.456 157.187 377.998C157.468 378.54 157.622 379.138 157.64 379.748C157.23 385.348 156.53 390.928 155.88 396.898C147.31 396.898 139.16 397.088 131.04 396.698C129.8 396.698 127.83 394.038 127.65 392.448C126.35 380.708 125.43 368.928 124.37 357.168C123.82 351.378 123.24 345.608 122.59 338.708ZM127.65 350.648L125.76 350.898L127.71 368.558L129.44 368.358C128.847 362.458 128.25 356.554 127.65 350.648Z" fill="white"/>
<path d="M123.39 316.788H190.48C190.98 332.178 175.6 347.088 158.86 347.788C140.29 348.498 124.45 334.828 123.39 316.788Z" fill="white"/>
<path d="M202.5 355.5L195.57 355.488C195.48 353.678 195.57 351.928 195.57 350.178C195.57 313.911 195.57 277.644 195.57 241.378C195.57 240.048 195.26 238.498 195.83 237.458C196.4 236.418 198.03 234.878 199 235.008C200.28 235.188 201.57 236.608 202.44 237.798C202.93 238.458 202.62 239.738 202.62 240.728C202.62 277.668 202.62 314.601 202.62 351.528C202.58 352.668 202.62 353.82 202.5 355.5Z" fill="white"/>
<path d="M199.06 373.618C186.39 373.618 173.73 373.698 161.06 373.518C159.55 373.518 158.06 371.998 156.55 371.198C158.12 370.428 159.68 368.998 161.25 368.988C186.583 368.861 211.916 368.861 237.25 368.988C238.73 368.988 240.25 370.528 241.68 371.348C240.14 372.098 238.61 373.458 237.06 373.478C224.39 373.688 211.72 373.608 199.06 373.618Z" fill="white"/>
<path d="M156.12 313.098C144.99 313.098 133.86 313.168 122.73 313.008C121.31 313.008 119.91 311.758 118.5 311.078C119.94 310.248 121.38 308.708 122.83 308.698C144.923 308.544 167.02 308.544 189.12 308.698C190.53 308.698 191.94 309.978 193.35 310.698C191.91 311.518 190.48 313.028 189.02 313.048C178.06 313.198 167.09 313.098 156.12 313.098Z" fill="white"/>
<path d="M186.82 365.488C185.59 360.678 187.05 358.488 191.89 358.608C196.89 358.768 201.89 358.608 206.89 358.608C211.89 358.608 212.56 359.698 211.43 365.438L186.82 365.488Z" fill="#F5C1C1"/>
<path d="M119.19 317.308C123.13 335.808 133.47 348.208 152.77 350.558C170.45 352.718 183.1 344.358 191.5 328.868C191.75 339.598 172.23 352.868 156.75 352.638C137.02 352.398 118.36 335.088 119.19 317.308Z" fill="#F5C1C1"/>
<path d="M213.82 376.378C215.05 377.508 217.15 378.508 217.34 379.798C218.15 385.148 218.39 390.588 218.84 396.048C215.6 397.748 213.99 396.758 213.69 393.488C213.21 388.248 212.82 382.998 212.4 377.748L213.82 376.378Z" fill="white"/>
<path d="M172.43 396.068C172.96 390.468 173.31 384.848 174.17 379.308C174.34 378.208 176.45 377.398 177.67 376.458L178.92 377.548C178.41 383.128 178.08 388.728 177.24 394.258C177.07 395.438 175.07 396.358 173.91 397.398L172.43 396.068Z" fill="white"/>
<path d="M179.3 396.418C179.8 390.798 180.13 385.418 180.89 380.048C181.05 378.898 182.75 377.968 183.74 376.928C184.37 378.168 185.57 379.418 185.53 380.628C185.41 384.908 184.71 389.168 184.53 393.448C184.38 396.748 182.82 397.358 179.3 396.418Z" fill="white"/>
<path d="M186.24 396.058C186.7 390.438 186.98 384.798 187.79 379.228C187.95 378.148 190.16 377.358 191.43 376.428L192.71 377.428C192.18 382.998 191.82 388.598 190.98 394.118C190.8 395.328 188.89 396.278 187.77 397.348L186.24 396.058Z" fill="white"/>
<path d="M232.59 396.268C228.95 397.708 227.69 396.348 227.45 393.158C227.08 388.068 226.56 382.978 226.1 377.728C229.1 376.178 230.89 376.608 231.21 380.138C231.7 385.398 232.12 390.668 232.59 396.268Z" fill="white"/>
<path d="M165.54 396.168C166.09 390.588 166.49 385.168 167.3 379.748C167.46 378.678 169.25 377.868 170.3 376.938C170.84 378.088 171.89 379.278 171.83 380.408C171.64 384.698 170.89 388.958 170.72 393.248C170.55 397.288 168.72 397.528 165.54 396.168Z" fill="white"/>
<path d="M224.19 397.478C223.04 396.418 221.07 395.478 220.87 394.268C220.145 389.504 219.694 384.703 219.52 379.888C219.47 378.888 220.59 377.888 221.16 376.888C222.16 377.718 223.78 378.448 223.93 379.408C224.75 384.948 225.22 390.538 225.81 396.108L224.19 397.478Z" fill="white"/>
<path d="M205.21 396.608H200.01C200.01 390.738 199.94 385.108 200.09 379.478C200.09 378.658 201.22 377.858 201.82 377.058C202.44 377.898 203.5 378.688 203.61 379.588C204.25 385.028 204.66 390.488 205.21 396.608Z" fill="white"/>
<path d="M210.23 397.438C209.23 396.318 207.51 395.328 207.29 394.068C206.483 389.497 205.955 384.882 205.71 380.248C205.64 379.188 206.89 378.038 207.54 376.938C208.54 377.938 210.24 378.818 210.39 379.938C211.13 385.328 211.46 390.768 211.93 396.198L210.23 397.438Z" fill="white"/>
<path d="M237.36 397.458C236.36 396.198 234.82 395.038 234.6 393.658C233.901 389.059 233.457 384.425 233.27 379.778C233.27 378.858 234.4 377.888 235.01 376.938C235.85 377.758 237.3 378.498 237.43 379.418C238.22 384.968 238.7 390.558 239.28 396.138L237.36 397.458Z" fill="white"/>
<path d="M165.24 377.738C164.71 383.148 164.33 388.588 163.53 393.968C163.34 395.238 161.71 396.298 160.75 397.448L159.09 396.558C159.72 390.728 160.24 384.878 161.09 379.078C161.24 378.078 162.94 377.398 163.92 376.568L165.24 377.738Z" fill="white"/>
<path d="M197.92 377.158C197.92 383.158 198.06 389.158 197.75 395.158C197.7 395.928 195.31 396.588 192.93 397.878C193.84 389.808 193.42 383.108 195.61 376.878L197.92 377.158Z" fill="white"/>
<path d="M249 72.19C250.55 74.59 251.94 72.19 253.52 72.07C258.12 71.77 262.75 71.96 267.52 71.96C267.69 74.02 267.83 75.65 267.96 77.27V91.8335C268.06 90.2435 268.42 74.08 268.51 72.54C277.57 70.04 279.1 71.2 280.51 78.4V72.26C289.79 70.02 288.91 73.1835 290 83.8335C290.19 83.6635 291.55 80.54 291.56 80.39C292.18 71.67 292.17 71.7 301.56 71.47C304.48 71.4 307.41 71.17 310.56 71C310.71 73.51 311.32 84.9035 311.5 87.8335C312.58 84.1735 310.11 69.28 316.01 71.25V109.72C314.01 109.9 312.38 110.13 310.81 110.17C292.01 110.57 273.213 110.957 254.42 111.33C251.99 111.33 249.86 111.65 249.81 107.97C249.82 96.24 249.38 84.49 249 72.19Z" fill="white"/>
<path d="M250.91 139.56V129.36H316C316.07 129.85 316.17 130.98 316.38 132.09C317.21 136.56 316.05 138.6 310.9 139.59C296.63 142.36 289.81 152.66 291.9 168.67C293.27 179.18 296.16 189.5 298.41 199.9C299.52 205.04 300.09 210.09 297 214.84C295.398 217.497 292.95 219.54 290.049 220.638C287.147 221.737 283.96 221.83 281 220.9C275 219.17 270.46 214.03 270.94 207.65C271.54 199.73 273.33 191.91 274.39 184.02C275.32 177.12 276.69 170.17 276.57 163.27C276.35 150.27 269.15 142.68 256.43 140.49C254.74 140.2 253.11 139.93 250.91 139.56ZM292.41 205.75C292.375 203.833 291.606 202.003 290.26 200.637C288.915 199.271 287.096 198.474 285.18 198.41C284.187 198.369 283.196 198.534 282.27 198.895C281.343 199.256 280.502 199.804 279.797 200.506C279.093 201.207 278.541 202.047 278.177 202.971C277.813 203.896 277.643 204.887 277.68 205.88C277.73 207.794 278.529 209.613 279.905 210.944C281.281 212.275 283.125 213.014 285.04 213C286.96 212.953 288.789 212.178 290.158 210.832C291.527 209.485 292.332 207.668 292.41 205.75Z" fill="white"/>
<path d="M250.92 125.34V113.56H315.53V125.34H250.92Z" fill="#F5C1C1"/>
<path d="M663.22 437.12C644.327 437.12 627.253 433.047 612 424.9C596.92 416.753 585.047 405.573 576.38 391.36C567.887 376.973 563.64 360.853 563.64 343C563.64 325.147 567.887 309.113 576.38 294.9C585.047 280.513 596.92 269.247 612 261.1C627.253 252.953 644.327 248.88 663.22 248.88C682.113 248.88 699.1 252.953 714.18 261.1C729.26 269.247 741.133 280.513 749.8 294.9C758.467 309.113 762.8 325.147 762.8 343C762.8 360.853 758.467 376.973 749.8 391.36C741.133 405.573 729.26 416.753 714.18 424.9C699.1 433.047 682.113 437.12 663.22 437.12ZM663.22 401.24C673.967 401.24 683.673 398.813 692.34 393.96C701.007 388.933 707.767 382 712.62 373.16C717.647 364.32 720.16 354.267 720.16 343C720.16 331.733 717.647 321.68 712.62 312.84C707.767 304 701.007 297.153 692.34 292.3C683.673 287.273 673.967 284.76 663.22 284.76C652.473 284.76 642.767 287.273 634.1 292.3C625.433 297.153 618.587 304 613.56 312.84C608.707 321.68 606.28 331.733 606.28 343C606.28 354.267 608.707 364.32 613.56 373.16C618.587 382 625.433 388.933 634.1 393.96C642.767 398.813 652.473 401.24 663.22 401.24ZM836.055 297.24H871.935V328.44H837.095V434H796.535V328.44H774.955V297.24H796.535V291C796.535 275.053 801.215 262.4 810.575 253.04C820.108 243.68 833.455 239 850.615 239C856.682 239 862.402 239.693 867.775 241.08C873.322 242.293 877.915 244.113 881.555 246.54L870.895 275.92C866.215 272.627 860.755 270.98 854.515 270.98C842.208 270.98 836.055 277.74 836.055 291.26V297.24ZM936.602 297.24H972.482V328.44H937.642V434H897.082V328.44H875.502V297.24H897.082V291C897.082 275.053 901.762 262.4 911.122 253.04C920.655 243.68 934.002 239 951.162 239C957.229 239 962.949 239.693 968.322 241.08C973.869 242.293 978.462 244.113 982.102 246.54L971.442 275.92C966.762 272.627 961.302 270.98 955.062 270.98C942.755 270.98 936.602 277.74 936.602 291.26V297.24ZM1127.93 364.58C1127.93 365.1 1127.67 368.74 1127.15 375.5H1021.33C1023.24 384.167 1027.74 391.013 1034.85 396.04C1041.96 401.067 1050.8 403.58 1061.37 403.58C1068.65 403.58 1075.06 402.54 1080.61 400.46C1086.33 398.207 1091.62 394.74 1096.47 390.06L1118.05 413.46C1104.88 428.54 1085.64 436.08 1060.33 436.08C1044.56 436.08 1030.6 433.047 1018.47 426.98C1006.34 420.74 996.978 412.16 990.391 401.24C983.805 390.32 980.511 377.927 980.511 364.06C980.511 350.367 983.718 338.06 990.131 327.14C996.718 316.047 1005.64 307.467 1016.91 301.4C1028.35 295.16 1041.09 292.04 1055.13 292.04C1068.82 292.04 1081.22 294.987 1092.31 300.88C1103.4 306.773 1112.07 315.267 1118.31 326.36C1124.72 337.28 1127.93 350.02 1127.93 364.58ZM1055.39 322.72C1046.2 322.72 1038.49 325.32 1032.25 330.52C1026.01 335.72 1022.2 342.827 1020.81 351.84H1089.71C1088.32 343 1084.51 335.98 1078.27 330.78C1072.03 325.407 1064.4 322.72 1055.39 322.72ZM1193.67 312.58C1198.53 305.82 1205.03 300.707 1213.17 297.24C1221.49 293.773 1231.03 292.04 1241.77 292.04V329.48C1237.27 329.133 1234.23 328.96 1232.67 328.96C1221.06 328.96 1211.96 332.253 1205.37 338.84C1198.79 345.253 1195.49 354.96 1195.49 367.96V434H1154.93V294.12H1193.67V312.58ZM1360.94 427.24C1356.95 430.187 1352.01 432.44 1346.12 434C1340.4 435.387 1334.33 436.08 1327.92 436.08C1311.28 436.08 1298.36 431.833 1289.18 423.34C1280.16 414.847 1275.66 402.367 1275.66 385.9V328.44H1254.08V297.24H1275.66V263.18H1316.22V297.24H1351.06V328.44H1316.22V385.38C1316.22 391.273 1317.69 395.867 1320.64 399.16C1323.76 402.28 1328.09 403.84 1333.64 403.84C1340.05 403.84 1345.51 402.107 1350.02 398.64L1360.94 427.24ZM1516.41 364.58C1516.41 365.1 1516.15 368.74 1515.63 375.5H1409.81C1411.71 384.167 1416.22 391.013 1423.33 396.04C1430.43 401.067 1439.27 403.58 1449.85 403.58C1457.13 403.58 1463.54 402.54 1469.09 400.46C1474.81 398.207 1480.09 394.74 1484.95 390.06L1506.53 413.46C1493.35 428.54 1474.11 436.08 1448.81 436.08C1433.03 436.08 1419.08 433.047 1406.95 426.98C1394.81 420.74 1385.45 412.16 1378.87 401.24C1372.28 390.32 1368.99 377.927 1368.99 364.06C1368.99 350.367 1372.19 338.06 1378.61 327.14C1385.19 316.047 1394.12 307.467 1405.39 301.4C1416.83 295.16 1429.57 292.04 1443.61 292.04C1457.3 292.04 1469.69 294.987 1480.79 300.88C1491.88 306.773 1500.55 315.267 1506.79 326.36C1513.2 337.28 1516.41 350.02 1516.41 364.58ZM1443.87 322.72C1434.68 322.72 1426.97 325.32 1420.73 330.52C1414.49 335.72 1410.67 342.827 1409.29 351.84H1478.19C1476.8 343 1472.99 335.98 1466.75 330.78C1460.51 325.407 1452.88 322.72 1443.87 322.72ZM1628.43 292.04C1645.76 292.04 1659.72 297.24 1670.29 307.64C1681.04 318.04 1686.41 333.467 1686.41 353.92V434H1645.85V360.16C1645.85 349.067 1643.42 340.833 1638.57 335.46C1633.72 329.913 1626.7 327.14 1617.51 327.14C1607.28 327.14 1599.14 330.347 1593.07 336.76C1587 343 1583.97 352.36 1583.97 364.84V434H1543.41V294.12H1582.15V310.5C1587.52 304.607 1594.2 300.1 1602.17 296.98C1610.14 293.687 1618.9 292.04 1628.43 292.04ZM1873.25 326.1C1889.2 328.7 1901.42 334.68 1909.91 344.04C1918.4 353.227 1922.65 364.667 1922.65 378.36C1922.65 388.933 1919.88 398.727 1914.33 407.74C1908.78 416.58 1900.29 423.687 1888.85 429.06C1877.58 434.433 1863.72 437.12 1847.25 437.12C1834.42 437.12 1821.77 435.473 1809.29 432.18C1796.98 428.713 1786.5 423.86 1777.83 417.62L1794.21 385.38C1801.14 390.58 1809.12 394.653 1818.13 397.6C1827.32 400.373 1836.68 401.76 1846.21 401.76C1856.78 401.76 1865.1 399.767 1871.17 395.78C1877.24 391.62 1880.27 385.813 1880.27 378.36C1880.27 363.453 1868.92 356 1846.21 356H1826.97V328.18L1864.41 285.8H1786.93V252H1914.33V279.3L1873.25 326.1ZM2029.72 319.86C2041.33 319.86 2051.9 322.2 2061.44 326.88C2070.97 331.56 2078.51 338.233 2084.06 346.9C2089.6 355.393 2092.38 365.273 2092.38 376.54C2092.38 388.673 2089.34 399.333 2083.28 408.52C2077.21 417.707 2068.89 424.813 2058.32 429.84C2047.92 434.693 2036.3 437.12 2023.48 437.12C1998 437.12 1978.06 429.32 1963.68 413.72C1949.29 398.12 1942.1 375.847 1942.1 346.9C1942.1 326.273 1946 308.593 1953.8 293.86C1961.6 279.127 1972.43 267.947 1986.3 260.32C2000.34 252.693 2016.54 248.88 2034.92 248.88C2044.62 248.88 2053.9 250.007 2062.74 252.26C2071.75 254.34 2079.38 257.373 2085.62 261.36L2070.02 292.3C2061 286.233 2049.65 283.2 2035.96 283.2C2020.53 283.2 2008.31 287.707 1999.3 296.72C1990.28 305.733 1985.43 318.82 1984.74 335.98C1995.48 325.233 2010.48 319.86 2029.72 319.86ZM2021.14 405.66C2030.15 405.66 2037.43 403.233 2042.98 398.38C2048.7 393.527 2051.56 386.94 2051.56 378.62C2051.56 370.3 2048.7 363.713 2042.98 358.86C2037.43 353.833 2029.98 351.32 2020.62 351.32C2011.43 351.32 2003.89 353.92 1998 359.12C1992.1 364.147 1989.16 370.647 1989.16 378.62C1989.16 386.593 1992.02 393.093 1997.74 398.12C2003.46 403.147 2011.26 405.66 2021.14 405.66ZM2170.04 320.38C2195.7 320.38 2214.59 325.493 2226.72 335.72C2239.03 345.947 2245.18 359.64 2245.18 376.8C2245.18 387.893 2242.41 398.033 2236.86 407.22C2231.32 416.233 2222.82 423.513 2211.38 429.06C2200.12 434.433 2186.16 437.12 2169.52 437.12C2156.7 437.12 2144.04 435.473 2131.56 432.18C2119.26 428.713 2108.77 423.86 2100.1 417.62L2116.74 385.38C2123.68 390.58 2131.65 394.653 2140.66 397.6C2149.68 400.373 2158.95 401.76 2168.48 401.76C2179.06 401.76 2187.38 399.68 2193.44 395.52C2199.51 391.36 2202.54 385.553 2202.54 378.1C2202.54 370.3 2199.34 364.407 2192.92 360.42C2186.68 356.433 2175.76 354.44 2160.16 354.44H2113.62L2122.98 252H2234V285.8H2158.08L2155.22 320.38H2170.04Z" fill="white"/>
<path d="M357.99 373C362.912 373 367 377.062 367 381.96C367 384.358 366.048 386.657 364.353 388.352C362.658 390.048 360.359 391 357.961 391C353.065 391 348.996 386.915 349 381.991C349.013 379.61 349.964 377.331 351.647 375.647C353.33 373.964 355.609 373.013 357.99 373ZM354.788 381.932C354.775 382.569 354.951 383.196 355.294 383.733C355.636 384.27 356.13 384.693 356.713 384.95C357.296 385.207 357.942 385.285 358.569 385.174C359.197 385.064 359.777 384.771 360.238 384.331C360.699 383.891 361.019 383.324 361.158 382.702C361.297 382.081 361.248 381.432 361.019 380.838C360.789 380.243 360.389 379.73 359.868 379.363C359.348 378.996 358.73 378.792 358.093 378.776C357.237 378.761 356.41 379.084 355.79 379.675C355.17 380.265 354.808 381.076 354.781 381.932H354.788Z" fill="#FF0000"/>
<circle cx="437.5" cy="381.5" r="16.5" fill="#F5C1C1"/>
<circle cx="437.5" cy="381.5" r="10.5" fill="#D32F2F"/>
<path d="M470.561 378.56C473.933 378.56 469 378.56 470.561 378.56C469.061 378.621 461.53 378.56 460 378.56C459.547 370.883 454.5 365.977 451 363.621C447.5 361.266 442.163 359.247 437.488 359.457C428.16 359.792 416.46 363.974 415.5 378.56H380C379.5 375.5 379 370.5 373 366H416.942V362.557C416.942 346.003 416.942 329.449 416.942 312.895C416.942 308.408 418.878 306.479 423.385 306.479C428.975 306.479 434.569 306.479 440.163 306.479C441.255 306.445 442.341 306.674 443.327 307.146C444.313 307.619 445.171 308.321 445.83 309.194C451.333 316.104 456.85 323.002 462.38 329.888C464.2 332.112 465.173 334.909 465.128 337.783C465.108 346.394 465.128 355.004 465.128 363.621V365.581C467.812 365.205 469.447 366.403 470.567 368.493L470.561 378.56ZM439.082 333.33C442.438 333.33 445.793 333.33 449.149 333.31C449.598 333.31 450.363 333.109 450.421 332.867C450.459 332.611 450.446 332.349 450.382 332.098C450.318 331.847 450.204 331.611 450.048 331.404C446.595 327.015 443.139 322.626 439.565 318.338C438.882 317.636 437.965 317.211 436.988 317.143C434.371 316.985 431.74 317.12 429.116 317.066C427.968 317.042 427.522 317.452 427.532 318.623C427.575 322.981 427.575 327.337 427.532 331.693C427.532 332.934 427.988 333.371 429.21 333.35C432.492 333.297 435.787 333.33 439.082 333.33Z" fill="white"/>
<path d="M341.706 349.481V343.924H299.188C299.631 343.39 300.691 343.315 301 343C303.802 340.188 306.124 337.235 309 334.5C309.639 333.933 310.147 334.041 311 334C315.805 333.916 320.566 334 325.583 334V328.035H346.998V322.478H299C300.651 320.852 303.351 319.626 305 318C307.381 315.651 307.342 314.396 309.5 313.5C311.658 312.604 316.49 312.513 319 312.5C321.782 312.5 322.69 312.257 325.62 312.257V306.529H341.68V301.046L299.5 301C300.674 299.785 301.621 299.399 302.5 298.5C304.708 296.279 306.688 293.627 309 291.5C309.683 290.904 310.095 291.043 311 291C315.862 290.909 321.138 290.466 326 290.5C326.956 290.5 327.247 290.218 327.878 289.362C330.039 286.426 333.036 285 336.687 285C357.939 285 379.191 285 400.443 285C406.65 285 411.422 289.6 411.432 295.701C411.466 316.729 411.466 337.758 411.432 358.786C411.432 359.121 411.399 359.457 411.372 359.94C410.811 359.97 410.274 360.021 409.738 360.021C383.289 360.021 356.84 360.021 330.391 360.021C327.173 360.021 325.694 358.521 325.67 355.286C325.67 353.4 325.67 351.511 325.67 349.471L341.706 349.481Z" fill="white"/>
<path d="M343 366.021C338.457 369.682 336.29 373.945 335.984 378.958C333.737 378.958 331.559 379.073 329.412 378.923C327.456 378.786 326.114 377.469 326.057 375.827C325.983 373.6 325.979 371.365 326.057 369.139C326.114 367.464 327.6 366.092 329.606 366.049C333.945 365.958 338.283 366.021 343 366.021Z" fill="white"/>
<path d="M309.5 312L299 322.5H326.5V312H309.5Z" fill="white"/>
<path d="M309.5 333.5L299 344L326.5 343.915V333.5H309.5Z" fill="white"/>
<path d="M309.5 290.5L299 301H326.5V290.5H309.5Z" fill="white"/>
<circle cx="357.5" cy="381.5" r="16.5" fill="#F5C1C1"/>
<circle cx="357.5" cy="381.5" r="10.5" fill="#D32F2F"/>
<path d="M375 304V314.5H355V330.5H375V341L403.5 322.5L375 304Z" fill="#D32F2F"/>
</svg>
