<svg width="3039" height="568" viewBox="0 0 3039 568" fill="none" xmlns="http://www.w3.org/2000/svg">
<path d="M366.073 352.529V562.07H619.761V318.924H713.087L547.467 170.664L366.073 352.529Z" fill="#D32F2F"/>
<path d="M356.872 336.715L180.079 159.462L357.529 0L534.98 158.803L356.872 336.715Z" fill="#D32F2F"/>
<path d="M347.019 352.531L166.283 171.325L138.679 194.387V159.464H95.9597V233.264L0.662354 318.926H94.6453V562.731L347.019 562.072V352.531Z" fill="#D32F2F"/>
<path d="M146.021 437.146C170.418 465.467 209.917 467.984 236.561 437.305C235.916 444.421 235.417 450.483 234.76 456.664C234.655 457.613 233.905 459.155 233.248 459.3C225.756 460.618 225.677 466.759 224.783 472.795C214.767 472.795 204.922 472.518 195.116 472.966C192.316 473.098 188.242 474.613 187.229 476.722C185.547 480.069 185.652 484.405 189.963 487.107C190.605 487.589 191.129 488.211 191.497 488.925C191.867 489.64 192.069 490.428 192.093 491.232C191.554 498.612 190.634 505.965 189.779 513.833C178.515 513.833 167.802 514.083 157.129 513.569C155.499 513.569 152.909 510.064 152.673 507.968C150.964 492.497 149.755 476.972 148.361 461.474C147.638 453.844 146.876 446.24 146.021 437.146ZM152.673 452.882L150.188 453.211L152.751 476.485L155.025 476.221C154.246 468.446 153.461 460.665 152.673 452.882Z" fill="white"/>
<path d="M147.074 408.259H235.26C235.917 428.541 215.701 448.19 193.697 449.113C169.288 450.048 148.467 432.033 147.074 408.259Z" fill="white"/>
<path d="M251.059 459.275L241.95 459.259C241.832 456.874 241.95 454.568 241.95 452.261C241.95 404.466 241.95 356.671 241.95 308.878C241.95 307.125 241.543 305.082 242.292 303.712C243.041 302.341 245.184 300.312 246.459 300.483C248.141 300.72 249.837 302.591 250.981 304.16C251.625 305.029 251.217 306.716 251.217 308.021C251.217 356.703 251.217 405.376 251.217 454.041C251.165 455.543 251.217 457.061 251.059 459.275Z" fill="white"/>
<path d="M246.537 483.155C229.883 483.155 213.242 483.26 196.588 483.023C194.603 483.023 192.645 481.02 190.66 479.966C192.724 478.951 194.774 477.066 196.838 477.053C230.137 476.886 263.436 476.886 296.736 477.053C298.681 477.053 300.679 479.083 302.559 480.163C300.535 481.152 298.524 482.944 296.486 482.97C279.832 483.247 263.178 483.142 246.537 483.155Z" fill="white"/>
<path d="M190.095 403.399C175.465 403.399 160.836 403.491 146.206 403.28C144.339 403.28 142.499 401.633 140.646 400.737C142.539 399.643 144.431 397.614 146.337 397.6C175.377 397.398 204.423 397.398 233.472 397.6C235.325 397.6 237.179 399.287 239.032 400.236C237.139 401.317 235.26 403.307 233.341 403.333C218.934 403.531 204.515 403.399 190.095 403.399Z" fill="white"/>
<path d="M230.449 472.438C228.832 466.099 230.751 463.213 237.113 463.371C243.686 463.582 250.258 463.371 256.83 463.371C263.402 463.371 264.283 464.808 262.798 472.372L230.449 472.438Z" fill="#F5C1C1"/>
<path d="M141.553 408.946C146.732 433.327 160.323 449.668 185.692 452.765C208.931 455.612 225.559 444.595 236.6 424.181C236.929 438.322 211.271 455.81 190.923 455.507C164.989 455.19 140.462 432.378 141.553 408.946Z" fill="#F5C1C1"/>
<path d="M265.939 486.792C267.556 488.281 270.316 489.599 270.566 491.299C271.631 498.35 271.946 505.519 272.538 512.714C268.279 514.955 266.162 513.65 265.768 509.341C265.137 502.435 264.625 495.516 264.073 488.597L265.939 486.792Z" fill="white"/>
<path d="M211.534 512.741C212.231 505.361 212.691 497.954 213.821 490.653C214.045 489.204 216.818 488.136 218.422 486.897L220.065 488.334C219.395 495.688 218.961 503.068 217.857 510.355C217.633 511.91 215.004 513.123 213.48 514.494L211.534 512.741Z" fill="white"/>
<path d="M220.564 513.2C221.221 505.794 221.655 498.703 222.654 491.626C222.864 490.111 225.099 488.885 226.4 487.515C227.228 489.149 228.806 490.796 228.753 492.391C228.595 498.031 227.675 503.645 227.439 509.286C227.241 513.635 225.191 514.439 220.564 513.2Z" fill="white"/>
<path d="M229.687 512.729C230.291 505.323 230.659 497.89 231.724 490.549C231.934 489.126 234.839 488.085 236.508 486.859L238.191 488.177C237.494 495.518 237.021 502.898 235.917 510.172C235.68 511.767 233.17 513.019 231.698 514.429L229.687 512.729Z" fill="white"/>
<path d="M290.61 513.003C285.826 514.901 284.17 513.109 283.854 508.905C283.368 502.197 282.684 495.489 282.08 488.57C286.023 486.527 288.376 487.094 288.797 491.746C289.441 498.678 289.993 505.623 290.61 513.003Z" fill="white"/>
<path d="M202.477 512.874C203.2 505.52 203.726 498.377 204.79 491.234C205.001 489.824 207.353 488.757 208.734 487.531C209.443 489.047 210.824 490.615 210.745 492.104C210.495 497.758 209.509 503.372 209.286 509.026C209.062 514.35 206.657 514.666 202.477 512.874Z" fill="white"/>
<path d="M279.57 514.599C278.058 513.202 275.469 511.963 275.206 510.368C274.253 504.09 273.66 497.763 273.431 491.417C273.366 490.1 274.838 488.782 275.587 487.464C276.901 488.558 279.031 489.52 279.228 490.785C280.306 498.086 280.924 505.453 281.699 512.793L279.57 514.599Z" fill="white"/>
<path d="M254.622 513.453H247.787C247.787 505.717 247.695 498.297 247.892 490.878C247.892 489.797 249.377 488.743 250.166 487.688C250.981 488.795 252.374 489.837 252.519 491.023C253.36 498.192 253.899 505.387 254.622 513.453Z" fill="white"/>
<path d="M261.22 514.547C259.905 513.071 257.644 511.767 257.355 510.106C256.294 504.082 255.6 498 255.278 491.893C255.186 490.496 256.829 488.981 257.684 487.531C258.998 488.849 261.233 490.009 261.43 491.485C262.403 498.588 262.836 505.757 263.454 512.913L261.22 514.547Z" fill="white"/>
<path d="M296.881 514.574C295.566 512.913 293.542 511.384 293.253 509.566C292.334 503.505 291.75 497.398 291.505 491.274C291.505 490.062 292.99 488.783 293.792 487.531C294.896 488.612 296.802 489.587 296.973 490.8C298.011 498.114 298.642 505.48 299.404 512.834L296.881 514.574Z" fill="white"/>
<path d="M202.083 488.581C201.386 495.711 200.886 502.88 199.835 509.97C199.585 511.643 197.443 513.04 196.181 514.556L193.999 513.383C194.827 505.7 195.51 497.99 196.628 490.347C196.825 489.029 199.059 488.133 200.348 487.039L202.083 488.581Z" fill="white"/>
<path d="M245.039 487.818C245.039 495.725 245.223 503.633 244.816 511.54C244.75 512.554 241.609 513.424 238.48 515.124C239.676 504.489 239.124 495.659 242.003 487.449L245.039 487.818Z" fill="white"/>
<path d="M312.838 86.1347C314.875 89.2975 316.702 86.1347 318.779 85.9765C324.826 85.5812 330.912 85.8316 337.182 85.8316C337.405 88.5464 337.589 90.6945 337.76 92.8294V112.022C337.891 109.927 338.365 88.6253 338.483 86.5958C350.392 83.3011 352.403 84.83 354.256 94.3186V86.2269C366.454 83.2749 365.298 87.444 366.73 101.479C366.98 101.255 368.768 97.1389 368.781 96.9412C369.596 85.4494 369.583 85.4888 381.925 85.1857C385.764 85.0934 389.615 84.7904 393.755 84.5664C393.953 87.8742 394.754 102.889 394.991 106.751C396.411 101.927 393.164 82.2997 400.919 84.8959V135.593C398.29 135.831 396.148 136.134 394.084 136.187C369.372 136.714 344.665 137.224 319.962 137.715C316.768 137.715 313.968 138.137 313.903 133.287C313.916 117.829 313.338 102.344 312.838 86.1347Z" fill="white"/>
<path d="M315.349 174.912V161.47H400.906C400.998 162.115 401.13 163.605 401.406 165.067C402.497 170.958 400.972 173.647 394.203 174.951C375.446 178.602 366.481 192.176 369.228 213.275C371.029 227.126 374.828 240.726 377.785 254.432C379.244 261.206 379.994 267.861 375.932 274.121C373.826 277.624 370.608 280.315 366.795 281.763C362.981 283.212 358.792 283.333 354.901 282.107C347.014 279.827 341.047 273.053 341.677 264.645C342.466 254.208 344.819 243.902 346.212 233.504C347.435 224.411 349.236 215.252 349.078 206.159C348.789 189.026 339.325 179.024 322.605 176.138C320.383 175.755 318.241 175.4 315.349 174.912ZM369.899 262.141C369.853 259.615 368.842 257.203 367.073 255.403C365.305 253.603 362.914 252.553 360.395 252.468C359.09 252.416 357.787 252.633 356.57 253.109C355.352 253.583 354.246 254.305 353.32 255.231C352.394 256.154 351.669 257.261 351.19 258.48C350.712 259.699 350.488 261.004 350.537 262.313C350.603 264.837 351.653 267.232 353.461 268.986C355.27 270.742 357.694 271.714 360.211 271.696C362.735 271.635 365.139 270.613 366.938 268.839C368.738 267.065 369.796 264.67 369.899 262.141Z" fill="white"/>
<path d="M315.362 156.176V140.651H400.289V156.176H315.362Z" fill="#F5C1C1"/>
<path d="M856.651 566.841C831.817 566.841 809.374 561.473 789.325 550.736C769.503 540 753.897 525.266 742.504 506.535C731.341 487.575 725.758 466.331 725.758 442.803C725.758 419.275 731.341 398.145 742.504 379.414C753.897 360.454 769.503 345.607 789.325 334.87C809.374 324.133 831.817 318.766 856.651 318.766C881.485 318.766 903.813 324.133 923.635 334.87C943.457 345.607 959.063 360.454 970.456 379.414C981.848 398.145 987.544 419.275 987.544 442.803C987.544 466.331 981.848 487.575 970.456 506.535C959.063 525.266 943.457 540 923.635 550.736C903.813 561.473 881.485 566.841 856.651 566.841ZM856.651 519.556C870.777 519.556 883.535 516.357 894.928 509.962C906.32 503.337 915.206 494.2 921.585 482.55C928.192 470.9 931.496 457.652 931.496 442.803C931.496 427.955 928.192 414.706 921.585 403.056C915.206 391.406 906.32 382.383 894.928 375.987C883.535 369.362 870.777 366.051 856.651 366.051C842.525 366.051 829.767 369.362 818.374 375.987C806.982 382.383 797.983 391.406 791.376 403.056C784.997 414.706 781.806 427.955 781.806 442.803C781.806 457.652 784.997 470.9 791.376 482.55C797.983 494.2 806.982 503.337 818.374 509.962C829.767 516.357 842.525 519.556 856.651 519.556ZM1083.83 382.498H1131V423.615H1085.2V562.729H1031.89V423.615H1003.52V382.498H1031.89V374.274C1031.89 353.258 1038.04 336.583 1050.34 324.248C1062.87 311.913 1080.42 305.745 1102.97 305.745C1110.95 305.745 1118.47 306.658 1125.53 308.486C1132.82 310.085 1138.86 312.483 1143.64 315.682L1129.63 354.401C1123.48 350.061 1116.3 347.89 1108.1 347.89C1091.92 347.89 1083.83 356.799 1083.83 374.617V382.498ZM1216 382.498H1263.16V423.615H1217.36V562.729H1164.05V423.615H1135.68V382.498H1164.05V374.274C1164.05 353.258 1170.2 336.583 1182.5 324.248C1195.04 311.913 1212.58 305.745 1235.14 305.745C1243.11 305.745 1250.63 306.658 1257.69 308.486C1264.98 310.085 1271.02 312.483 1275.8 315.682L1261.79 354.401C1255.64 350.061 1248.46 347.89 1240.26 347.89C1224.08 347.89 1216 356.799 1216 374.617V382.498ZM1467.49 471.243C1467.49 471.928 1467.15 476.725 1466.46 485.634H1327.37C1329.88 497.056 1335.79 506.078 1345.14 512.703C1354.48 519.328 1366.1 522.639 1380 522.639C1389.57 522.639 1397.99 521.269 1405.29 518.528C1412.81 515.559 1419.76 510.99 1426.13 504.822L1454.5 535.66C1437.19 555.533 1411.9 565.47 1378.63 565.47C1357.9 565.47 1339.55 561.473 1323.61 553.478C1307.66 545.254 1295.36 533.947 1286.7 519.556C1278.04 505.165 1273.71 488.832 1273.71 470.557C1273.71 452.512 1277.93 436.293 1286.36 421.902C1295.02 407.283 1306.75 395.975 1321.56 387.98C1336.59 379.756 1353.34 375.645 1371.8 375.645C1389.79 375.645 1406.09 379.528 1420.67 387.295C1435.24 395.061 1446.64 406.255 1454.84 420.874C1463.27 435.265 1467.49 452.055 1467.49 471.243ZM1372.14 416.077C1360.06 416.077 1349.92 419.503 1341.72 426.356C1333.52 433.209 1328.51 442.575 1326.68 454.453H1417.25C1415.42 442.803 1410.41 433.552 1402.21 426.699C1394.01 419.618 1383.98 416.077 1372.14 416.077ZM1553.9 402.714C1560.29 393.805 1568.83 387.067 1579.53 382.498C1590.47 377.929 1603.01 375.645 1617.12 375.645V424.986C1611.21 424.528 1607.21 424.3 1605.16 424.3C1589.9 424.3 1577.94 428.64 1569.28 437.321C1560.63 445.772 1556.29 458.565 1556.29 475.697V562.729H1502.98V378.386H1553.9V402.714ZM1773.77 553.82C1768.52 557.704 1762.03 560.673 1754.29 562.729C1746.77 564.557 1738.79 565.47 1730.36 565.47C1708.49 565.47 1691.51 559.873 1679.44 548.681C1667.59 537.488 1661.67 521.041 1661.67 499.34V423.615H1633.3V382.498H1661.67V337.611H1714.98V382.498H1760.78V423.615H1714.98V498.654C1714.98 506.421 1716.92 512.475 1720.79 516.815C1724.9 520.926 1730.59 522.982 1737.88 522.982C1746.31 522.982 1753.48 520.698 1759.41 516.129L1773.77 553.82ZM1978.12 471.243C1978.12 471.928 1977.78 476.725 1977.1 485.634H1838C1840.5 497.056 1846.43 506.078 1855.77 512.703C1865.11 519.328 1876.73 522.639 1890.63 522.639C1900.2 522.639 1908.63 521.269 1915.92 518.528C1923.44 515.559 1930.38 510.99 1936.77 504.822L1965.14 535.66C1947.81 555.533 1922.52 565.47 1889.27 565.47C1868.52 565.47 1850.19 561.473 1834.24 553.478C1818.29 545.254 1805.98 533.947 1797.33 519.556C1788.67 505.165 1784.35 488.832 1784.35 470.557C1784.35 452.512 1788.55 436.293 1796.99 421.902C1805.64 407.283 1817.38 395.975 1832.19 387.98C1847.23 379.756 1863.98 375.645 1882.43 375.645C1900.43 375.645 1916.71 379.528 1931.3 387.295C1945.88 395.061 1957.28 406.255 1965.48 420.874C1973.9 435.265 1978.12 452.055 1978.12 471.243ZM1882.77 416.077C1870.69 416.077 1860.56 419.503 1852.36 426.356C1844.16 433.209 1839.13 442.575 1837.32 454.453H1927.89C1926.06 442.803 1921.05 433.552 1912.85 426.699C1904.65 419.618 1894.62 416.077 1882.77 416.077ZM2125.37 375.645C2148.15 375.645 2166.5 382.498 2180.39 396.203C2194.52 409.909 2201.58 430.24 2201.58 457.194V562.729H2148.27V465.418C2148.27 450.799 2145.07 439.947 2138.7 432.866C2132.32 425.556 2123.09 421.902 2111.01 421.902C2097.57 421.902 2086.87 426.128 2078.89 434.58C2070.91 442.803 2066.93 455.138 2066.93 471.585V562.729H2013.61V378.386H2064.54V399.973C2071.59 392.206 2080.37 386.267 2090.85 382.155C2101.33 377.815 2112.84 375.645 2125.37 375.645ZM2447.17 420.531C2468.14 423.958 2484.2 431.839 2495.36 444.174C2506.52 456.281 2512.1 471.357 2512.1 489.403C2512.1 503.337 2508.46 516.244 2501.17 528.122C2493.87 539.772 2482.71 549.138 2467.68 556.219C2452.86 563.3 2434.64 566.841 2412.99 566.841C2396.13 566.841 2379.5 564.67 2363.1 560.33C2346.92 555.761 2333.14 549.366 2321.75 541.142L2343.28 498.654C2352.39 505.507 2362.88 510.875 2374.72 514.759C2386.8 518.413 2399.1 520.241 2411.63 520.241C2425.52 520.241 2436.46 517.614 2444.44 512.36C2452.42 506.878 2456.4 499.225 2456.4 489.403C2456.4 469.757 2441.48 459.935 2411.63 459.935H2386.34V423.272L2435.55 367.421H2333.71V322.877H2501.17V358.855L2447.17 420.531ZM2652.84 412.308C2668.1 412.308 2682 415.392 2694.54 421.559C2707.06 427.727 2716.97 436.521 2724.27 447.943C2731.55 459.135 2735.2 472.156 2735.2 487.004C2735.2 502.994 2731.21 517.042 2723.24 529.15C2715.26 541.257 2704.33 550.622 2690.43 557.247C2676.76 563.642 2661.49 566.841 2644.64 566.841C2611.15 566.841 2584.94 556.561 2566.04 536.003C2547.12 515.444 2537.67 486.091 2537.67 447.943C2537.67 420.759 2542.8 397.459 2553.05 378.043C2563.3 358.627 2577.54 343.893 2595.77 333.842C2614.22 323.791 2635.52 318.766 2659.68 318.766C2672.43 318.766 2684.63 320.251 2696.24 323.22C2708.09 325.961 2718.12 329.958 2726.32 335.213L2705.81 375.987C2693.96 367.992 2679.04 363.995 2661.04 363.995C2640.76 363.995 2624.7 369.934 2612.86 381.812C2601 393.69 2594.63 410.937 2593.72 433.552C2607.84 419.389 2627.55 412.308 2652.84 412.308ZM2641.56 525.381C2653.41 525.381 2662.98 522.182 2670.27 515.787C2677.79 509.391 2681.55 500.71 2681.55 489.746C2681.55 478.781 2677.79 470.1 2670.27 463.704C2662.98 457.08 2653.18 453.768 2640.88 453.768C2628.8 453.768 2618.89 457.194 2611.15 464.047C2603.39 470.672 2599.53 479.238 2599.53 489.746C2599.53 500.253 2603.29 508.819 2610.81 515.444C2618.32 522.069 2628.58 525.381 2641.56 525.381ZM2837.29 412.993C2871.01 412.993 2895.84 419.731 2911.79 433.209C2927.97 446.687 2936.05 464.732 2936.05 487.347C2936.05 501.966 2932.41 515.329 2925.12 527.437C2917.83 539.314 2906.66 548.908 2891.62 556.219C2876.82 563.3 2858.47 566.841 2836.6 566.841C2819.75 566.841 2803.11 564.67 2786.71 560.33C2770.54 555.761 2756.75 549.366 2745.35 541.142L2767.22 498.654C2776.35 505.507 2786.82 510.875 2798.67 514.759C2810.52 518.413 2822.71 520.241 2835.23 520.241C2849.14 520.241 2860.08 517.5 2868.04 512.017C2876.02 506.535 2880 498.882 2880 489.06C2880 478.781 2875.8 471.015 2867.36 465.76C2859.16 460.506 2844.8 457.88 2824.3 457.88H2763.12L2775.43 322.877H2921.36V367.421H2821.56L2817.8 412.993H2837.29Z" fill="#D32F2F"/>
<path d="M456.1 481.021C462.569 481.021 467.943 486.374 467.943 492.829C467.943 495.989 466.692 499.019 464.464 501.252C462.236 503.488 459.214 504.742 456.062 504.742C449.626 504.742 444.278 499.359 444.283 492.869C444.3 489.732 445.55 486.728 447.762 484.509C449.974 482.291 452.97 481.038 456.1 481.021ZM451.891 492.792C451.874 493.631 452.105 494.457 452.556 495.165C453.006 495.873 453.655 496.43 454.421 496.769C455.188 497.108 456.037 497.211 456.861 497.064C457.686 496.919 458.449 496.533 459.055 495.953C459.661 495.373 460.081 494.626 460.264 493.806C460.447 492.988 460.382 492.133 460.081 491.35C459.779 490.566 459.253 489.89 458.568 489.406C457.885 488.922 457.072 488.654 456.235 488.633C455.11 488.613 454.023 489.038 453.208 489.817C452.393 490.595 451.917 491.664 451.882 492.792H451.891Z" fill="#FF0000"/>
<path d="M560.611 513.968C572.59 513.968 582.3 504.233 582.3 492.223C582.3 480.214 572.59 470.479 560.611 470.479C548.633 470.479 538.923 480.214 538.923 492.223C538.923 504.233 548.633 513.968 560.611 513.968Z" fill="#F5C1C1"/>
<path d="M560.611 506.061C568.234 506.061 574.413 499.866 574.413 492.223C574.413 484.581 568.234 478.386 560.611 478.386C552.989 478.386 546.81 484.581 546.81 492.223C546.81 499.866 552.989 506.061 560.611 506.061Z" fill="#D32F2F"/>
<path d="M604.068 488.348C608.5 488.348 602.016 488.348 604.068 488.348C602.096 488.428 592.197 488.348 590.186 488.348C589.591 478.231 582.957 471.765 578.356 468.66C573.756 465.557 566.741 462.897 560.596 463.173C548.334 463.616 532.955 469.126 531.694 488.348H485.031C484.373 484.315 483.716 477.726 475.83 471.796H533.589V467.259C533.589 445.442 533.589 423.626 533.589 401.81C533.589 395.898 536.134 393.355 542.058 393.355C549.406 393.355 556.759 393.355 564.112 393.355C565.547 393.31 566.975 393.612 568.271 394.234C569.567 394.857 570.694 395.782 571.561 396.933C578.794 406.039 586.046 415.13 593.315 424.205C595.707 427.136 596.986 430.822 596.927 434.609C596.9 445.957 596.927 457.304 596.927 468.66V471.243C600.455 470.748 602.604 472.327 604.076 475.082L604.068 488.348ZM562.691 428.741C567.102 428.741 571.512 428.741 575.923 428.715C576.513 428.715 577.519 428.45 577.595 428.131C577.645 427.793 577.628 427.448 577.544 427.117C577.46 426.786 577.31 426.475 577.105 426.203C572.566 420.419 568.023 414.634 563.326 408.983C562.428 408.058 561.223 407.498 559.938 407.409C556.498 407.2 553.04 407.378 549.591 407.307C548.082 407.276 547.496 407.816 547.509 409.359C547.565 415.102 547.565 420.843 547.509 426.584C547.509 428.219 548.108 428.795 549.715 428.769C554.029 428.697 558.36 428.741 562.691 428.741Z" fill="white"/>
<path d="M434.695 450.024V442.701H378.808C379.39 441.997 380.783 441.898 381.189 441.483C384.873 437.777 387.925 433.886 391.705 430.281C392.545 429.534 393.213 429.676 394.334 429.622C400.65 429.512 406.908 429.622 413.502 429.622V421.761H441.651V414.438H378.561C380.731 412.295 384.28 410.679 386.447 408.536C389.577 405.441 389.526 403.787 392.362 402.606C395.199 401.425 401.55 401.305 404.849 401.288C408.506 401.288 409.7 400.968 413.551 400.968V393.419H434.661V386.193L379.218 386.133C380.761 384.532 382.006 384.023 383.161 382.838C386.063 379.911 388.666 376.416 391.705 373.613C392.603 372.828 393.144 373.011 394.334 372.954C400.725 372.834 407.66 372.25 414.051 372.295C415.307 372.295 415.69 371.923 416.519 370.795C419.36 366.926 423.299 365.047 428.098 365.047C456.033 365.047 483.967 365.047 511.902 365.047C520.061 365.047 526.333 371.109 526.346 379.149C526.391 406.861 526.391 434.575 526.346 462.287C526.346 462.728 526.303 463.171 526.267 463.808C525.53 463.847 524.824 463.914 524.12 463.914C489.354 463.914 454.588 463.914 419.822 463.914C415.592 463.914 413.648 461.938 413.617 457.674C413.617 455.189 413.617 452.699 413.617 450.011L434.695 450.024Z" fill="white"/>
<path d="M436.396 471.822C430.425 476.647 427.576 482.265 427.174 488.871C424.221 488.871 421.358 489.023 418.536 488.825C415.965 488.645 414.201 486.909 414.126 484.745C414.028 481.81 414.023 478.865 414.126 475.931C414.201 473.724 416.154 471.916 418.791 471.859C424.494 471.739 430.196 471.822 436.396 471.822Z" fill="white"/>
<path d="M392.362 400.632L378.561 414.469H414.708V400.632H392.362Z" fill="white"/>
<path d="M392.362 428.965L378.561 442.802L414.708 442.69V428.965H392.362Z" fill="white"/>
<path d="M392.362 372.298L378.561 386.135H414.708V372.298H392.362Z" fill="white"/>
<path d="M455.456 513.968C467.434 513.968 477.144 504.233 477.144 492.223C477.144 480.214 467.434 470.479 455.456 470.479C443.478 470.479 433.767 480.214 433.767 492.223C433.767 504.233 443.478 513.968 455.456 513.968Z" fill="#F5C1C1"/>
<path d="M455.456 506.061C463.078 506.061 469.257 499.866 469.257 492.223C469.257 484.581 463.078 478.386 455.456 478.386C447.833 478.386 441.654 484.581 441.654 492.223C441.654 499.866 447.833 506.061 455.456 506.061Z" fill="#D32F2F"/>
<path d="M478.458 390.087V403.925H452.169V425.01H478.458V438.848L515.92 414.467L478.458 390.087Z" fill="#D32F2F"/>
</svg>
