<svg width="2312" height="431" viewBox="0 0 2312 431" fill="none" xmlns="http://www.w3.org/2000/svg">
<path d="M278.5 267.5V426.5H471.5V242H542.5L416.5 129.5L278.5 267.5Z" fill="#D32F2F"/>
<path d="M271.5 255.5L137 121L272 0L407 120.5L271.5 255.5Z" fill="#D32F2F"/>
<path d="M264 267.5L126.5 130L105.5 147.5V121H73V177L0.5 242H72V427L264 426.5V267.5Z" fill="#D32F2F"/>
<path d="M111.09 331.708C129.65 353.198 159.7 355.108 179.97 331.828C179.48 337.228 179.1 341.828 178.6 346.518C178.52 347.238 177.95 348.408 177.45 348.518C171.75 349.518 171.69 354.178 171.01 358.758C163.39 358.758 155.9 358.548 148.44 358.888C146.31 358.988 143.21 360.138 142.44 361.738C141.16 364.278 141.24 367.568 144.52 369.618C145.008 369.984 145.407 370.456 145.687 370.998C145.968 371.54 146.122 372.138 146.14 372.748C145.73 378.348 145.03 383.928 144.38 389.898C135.81 389.898 127.66 390.088 119.54 389.698C118.3 389.698 116.33 387.038 116.15 385.448C114.85 373.708 113.93 361.928 112.87 350.168C112.32 344.378 111.74 338.608 111.09 331.708ZM116.15 343.648L114.26 343.898L116.21 361.558L117.94 361.358C117.347 355.458 116.75 349.554 116.15 343.648Z" fill="white"/>
<path d="M111.89 309.788H178.98C179.48 325.178 164.1 340.088 147.36 340.788C128.79 341.498 112.95 327.828 111.89 309.788Z" fill="white"/>
<path d="M191 348.5L184.07 348.488C183.98 346.678 184.07 344.928 184.07 343.178C184.07 306.911 184.07 270.644 184.07 234.378C184.07 233.048 183.76 231.498 184.33 230.458C184.9 229.418 186.53 227.878 187.5 228.008C188.78 228.188 190.07 229.608 190.94 230.798C191.43 231.458 191.12 232.738 191.12 233.728C191.12 270.668 191.12 307.601 191.12 344.528C191.08 345.668 191.12 346.82 191 348.5Z" fill="white"/>
<path d="M187.56 366.618C174.89 366.618 162.23 366.698 149.56 366.518C148.05 366.518 146.56 364.998 145.05 364.198C146.62 363.428 148.18 361.998 149.75 361.988C175.083 361.861 200.416 361.861 225.75 361.988C227.23 361.988 228.75 363.528 230.18 364.348C228.64 365.098 227.11 366.458 225.56 366.478C212.89 366.688 200.22 366.608 187.56 366.618Z" fill="white"/>
<path d="M144.62 306.098C133.49 306.098 122.36 306.168 111.23 306.008C109.81 306.008 108.41 304.758 107 304.078C108.44 303.248 109.88 301.708 111.33 301.698C133.423 301.544 155.52 301.544 177.62 301.698C179.03 301.698 180.44 302.978 181.85 303.698C180.41 304.518 178.98 306.028 177.52 306.048C166.56 306.198 155.59 306.098 144.62 306.098Z" fill="white"/>
<path d="M175.32 358.488C174.09 353.678 175.55 351.488 180.39 351.608C185.39 351.768 190.39 351.608 195.39 351.608C200.39 351.608 201.06 352.698 199.93 358.438L175.32 358.488Z" fill="#F5C1C1"/>
<path d="M107.69 310.308C111.63 328.808 121.97 341.208 141.27 343.558C158.95 345.718 171.6 337.358 180 321.868C180.25 332.598 160.73 345.868 145.25 345.638C125.52 345.398 106.86 328.088 107.69 310.308Z" fill="#F5C1C1"/>
<path d="M202.32 369.378C203.55 370.508 205.65 371.508 205.84 372.798C206.65 378.148 206.89 383.588 207.34 389.048C204.1 390.748 202.49 389.758 202.19 386.488C201.71 381.248 201.32 375.998 200.9 370.748L202.32 369.378Z" fill="white"/>
<path d="M160.93 389.068C161.46 383.468 161.81 377.848 162.67 372.308C162.84 371.208 164.95 370.398 166.17 369.458L167.42 370.548C166.91 376.128 166.58 381.728 165.74 387.258C165.57 388.438 163.57 389.358 162.41 390.398L160.93 389.068Z" fill="white"/>
<path d="M167.8 389.418C168.3 383.798 168.63 378.418 169.39 373.048C169.55 371.898 171.25 370.968 172.24 369.928C172.87 371.168 174.07 372.418 174.03 373.628C173.91 377.908 173.21 382.168 173.03 386.448C172.88 389.748 171.32 390.358 167.8 389.418Z" fill="white"/>
<path d="M174.74 389.058C175.2 383.438 175.48 377.798 176.29 372.228C176.45 371.148 178.66 370.358 179.93 369.428L181.21 370.428C180.68 375.998 180.32 381.598 179.48 387.118C179.3 388.328 177.39 389.278 176.27 390.348L174.74 389.058Z" fill="white"/>
<path d="M221.09 389.268C217.45 390.708 216.19 389.348 215.95 386.158C215.58 381.068 215.06 375.978 214.6 370.728C217.6 369.178 219.39 369.608 219.71 373.138C220.2 378.398 220.62 383.668 221.09 389.268Z" fill="white"/>
<path d="M154.04 389.168C154.59 383.588 154.99 378.168 155.8 372.748C155.96 371.678 157.75 370.868 158.8 369.938C159.34 371.088 160.39 372.278 160.33 373.408C160.14 377.698 159.39 381.958 159.22 386.248C159.05 390.288 157.22 390.528 154.04 389.168Z" fill="white"/>
<path d="M212.69 390.478C211.54 389.418 209.57 388.478 209.37 387.268C208.645 382.504 208.194 377.703 208.02 372.888C207.97 371.888 209.09 370.888 209.66 369.888C210.66 370.718 212.28 371.448 212.43 372.408C213.25 377.948 213.72 383.538 214.31 389.108L212.69 390.478Z" fill="white"/>
<path d="M193.71 389.608H188.51C188.51 383.738 188.44 378.108 188.59 372.478C188.59 371.658 189.72 370.858 190.32 370.058C190.94 370.898 192 371.688 192.11 372.588C192.75 378.028 193.16 383.488 193.71 389.608Z" fill="white"/>
<path d="M198.73 390.438C197.73 389.318 196.01 388.328 195.79 387.068C194.983 382.497 194.455 377.882 194.21 373.248C194.14 372.188 195.39 371.038 196.04 369.938C197.04 370.938 198.74 371.818 198.89 372.938C199.63 378.328 199.96 383.768 200.43 389.198L198.73 390.438Z" fill="white"/>
<path d="M225.86 390.458C224.86 389.198 223.32 388.038 223.1 386.658C222.401 382.059 221.957 377.425 221.77 372.778C221.77 371.858 222.9 370.888 223.51 369.938C224.35 370.758 225.8 371.498 225.93 372.418C226.72 377.968 227.2 383.558 227.78 389.138L225.86 390.458Z" fill="white"/>
<path d="M153.74 370.738C153.21 376.148 152.83 381.588 152.03 386.968C151.84 388.238 150.21 389.298 149.25 390.448L147.59 389.558C148.22 383.728 148.74 377.878 149.59 372.078C149.74 371.078 151.44 370.398 152.42 369.568L153.74 370.738Z" fill="white"/>
<path d="M186.42 370.158C186.42 376.158 186.56 382.158 186.25 388.158C186.2 388.928 183.81 389.588 181.43 390.878C182.34 382.808 181.92 376.108 184.11 369.878L186.42 370.158Z" fill="white"/>
<path d="M238 65.3565C239.55 67.7565 240.94 65.3565 242.52 65.2365C247.12 64.9365 251.75 65.1265 256.52 65.1265C256.69 67.1865 256.83 68.8165 256.96 70.4365V85C257.06 83.41 257.42 67.2464 257.51 65.7064C266.57 63.2064 268.1 64.3665 269.51 71.5665V65.4265C278.79 63.1865 277.91 66.35 279 77C279.19 76.83 280.55 73.7065 280.56 73.5565C281.18 64.8365 281.17 64.8664 290.56 64.6364C293.48 64.5664 296.41 64.3365 299.56 64.1665C299.71 66.6765 300.32 78.07 300.5 81C301.58 77.34 299.11 62.4465 305.01 64.4165V102.886C303.01 103.066 301.38 103.296 299.81 103.336C281.01 103.736 262.213 104.123 243.42 104.496C240.99 104.496 238.86 104.816 238.81 101.136C238.82 89.4065 238.38 77.6565 238 65.3565Z" fill="white"/>
<path d="M239.91 132.726V122.526H305C305.07 123.016 305.17 124.146 305.38 125.256C306.21 129.726 305.05 131.766 299.9 132.756C285.63 135.526 278.81 145.826 280.9 161.836C282.27 172.346 285.16 182.666 287.41 193.066C288.52 198.206 289.09 203.256 286 208.006C284.398 210.664 281.95 212.706 279.049 213.805C276.147 214.904 272.96 214.996 270 214.066C264 212.336 259.46 207.196 259.94 200.816C260.54 192.896 262.33 185.076 263.39 177.186C264.32 170.286 265.69 163.336 265.57 156.436C265.35 143.436 258.15 135.846 245.43 133.656C243.74 133.366 242.11 133.096 239.91 132.726ZM281.41 198.916C281.375 196.999 280.606 195.169 279.26 193.803C277.915 192.437 276.096 191.64 274.18 191.576C273.187 191.536 272.196 191.701 271.27 192.062C270.343 192.422 269.502 192.97 268.797 193.672C268.093 194.373 267.541 195.213 267.177 196.138C266.813 197.063 266.643 198.053 266.68 199.046C266.73 200.961 267.529 202.779 268.905 204.11C270.281 205.442 272.125 206.18 274.04 206.166C275.96 206.12 277.789 205.344 279.158 203.998C280.527 202.652 281.332 200.835 281.41 198.916Z" fill="white"/>
<path d="M239.92 118.506V106.726H304.53V118.506H239.92Z" fill="#F5C1C1"/>
<path d="M651.72 430.12C632.827 430.12 615.753 426.047 600.5 417.9C585.42 409.753 573.547 398.573 564.88 384.36C556.387 369.973 552.14 353.853 552.14 336C552.14 318.147 556.387 302.113 564.88 287.9C573.547 273.513 585.42 262.247 600.5 254.1C615.753 245.953 632.827 241.88 651.72 241.88C670.613 241.88 687.6 245.953 702.68 254.1C717.76 262.247 729.633 273.513 738.3 287.9C746.967 302.113 751.3 318.147 751.3 336C751.3 353.853 746.967 369.973 738.3 384.36C729.633 398.573 717.76 409.753 702.68 417.9C687.6 426.047 670.613 430.12 651.72 430.12ZM651.72 394.24C662.467 394.24 672.173 391.813 680.84 386.96C689.507 381.933 696.267 375 701.12 366.16C706.147 357.32 708.66 347.267 708.66 336C708.66 324.733 706.147 314.68 701.12 305.84C696.267 297 689.507 290.153 680.84 285.3C672.173 280.273 662.467 277.76 651.72 277.76C640.973 277.76 631.267 280.273 622.6 285.3C613.933 290.153 607.087 297 602.06 305.84C597.207 314.68 594.78 324.733 594.78 336C594.78 347.267 597.207 357.32 602.06 366.16C607.087 375 613.933 381.933 622.6 386.96C631.267 391.813 640.973 394.24 651.72 394.24ZM824.555 290.24H860.435V321.44H825.595V427H785.035V321.44H763.455V290.24H785.035V284C785.035 268.053 789.715 255.4 799.075 246.04C808.608 236.68 821.955 232 839.115 232C845.182 232 850.902 232.693 856.275 234.08C861.822 235.293 866.415 237.113 870.055 239.54L859.395 268.92C854.715 265.627 849.255 263.98 843.015 263.98C830.708 263.98 824.555 270.74 824.555 284.26V290.24ZM925.102 290.24H960.982V321.44H926.142V427H885.582V321.44H864.002V290.24H885.582V284C885.582 268.053 890.262 255.4 899.622 246.04C909.155 236.68 922.502 232 939.662 232C945.729 232 951.449 232.693 956.822 234.08C962.369 235.293 966.962 237.113 970.602 239.54L959.942 268.92C955.262 265.627 949.802 263.98 943.562 263.98C931.255 263.98 925.102 270.74 925.102 284.26V290.24ZM1116.43 357.58C1116.43 358.1 1116.17 361.74 1115.65 368.5H1009.83C1011.74 377.167 1016.24 384.013 1023.35 389.04C1030.46 394.067 1039.3 396.58 1049.87 396.58C1057.15 396.58 1063.56 395.54 1069.11 393.46C1074.83 391.207 1080.12 387.74 1084.97 383.06L1106.55 406.46C1093.38 421.54 1074.14 429.08 1048.83 429.08C1033.06 429.08 1019.1 426.047 1006.97 419.98C994.838 413.74 985.478 405.16 978.891 394.24C972.305 383.32 969.011 370.927 969.011 357.06C969.011 343.367 972.218 331.06 978.631 320.14C985.218 309.047 994.145 300.467 1005.41 294.4C1016.85 288.16 1029.59 285.04 1043.63 285.04C1057.32 285.04 1069.72 287.987 1080.81 293.88C1091.9 299.773 1100.57 308.267 1106.81 319.36C1113.22 330.28 1116.43 343.02 1116.43 357.58ZM1043.89 315.72C1034.7 315.72 1026.99 318.32 1020.75 323.52C1014.51 328.72 1010.7 335.827 1009.31 344.84H1078.21C1076.82 336 1073.01 328.98 1066.77 323.78C1060.53 318.407 1052.9 315.72 1043.89 315.72ZM1182.17 305.58C1187.03 298.82 1193.53 293.707 1201.67 290.24C1209.99 286.773 1219.53 285.04 1230.27 285.04V322.48C1225.77 322.133 1222.73 321.96 1221.17 321.96C1209.56 321.96 1200.46 325.253 1193.87 331.84C1187.29 338.253 1183.99 347.96 1183.99 360.96V427H1143.43V287.12H1182.17V305.58ZM1349.44 420.24C1345.45 423.187 1340.51 425.44 1334.62 427C1328.9 428.387 1322.83 429.08 1316.42 429.08C1299.78 429.08 1286.86 424.833 1277.68 416.34C1268.66 407.847 1264.16 395.367 1264.16 378.9V321.44H1242.58V290.24H1264.16V256.18H1304.72V290.24H1339.56V321.44H1304.72V378.38C1304.72 384.273 1306.19 388.867 1309.14 392.16C1312.26 395.28 1316.59 396.84 1322.14 396.84C1328.55 396.84 1334.01 395.107 1338.52 391.64L1349.44 420.24ZM1504.91 357.58C1504.91 358.1 1504.65 361.74 1504.13 368.5H1398.31C1400.21 377.167 1404.72 384.013 1411.83 389.04C1418.93 394.067 1427.77 396.58 1438.35 396.58C1445.63 396.58 1452.04 395.54 1457.59 393.46C1463.31 391.207 1468.59 387.74 1473.45 383.06L1495.03 406.46C1481.85 421.54 1462.61 429.08 1437.31 429.08C1421.53 429.08 1407.58 426.047 1395.45 419.98C1383.31 413.74 1373.95 405.16 1367.37 394.24C1360.78 383.32 1357.49 370.927 1357.49 357.06C1357.49 343.367 1360.69 331.06 1367.11 320.14C1373.69 309.047 1382.62 300.467 1393.89 294.4C1405.33 288.16 1418.07 285.04 1432.11 285.04C1445.8 285.04 1458.19 287.987 1469.29 293.88C1480.38 299.773 1489.05 308.267 1495.29 319.36C1501.7 330.28 1504.91 343.02 1504.91 357.58ZM1432.37 315.72C1423.18 315.72 1415.47 318.32 1409.23 323.52C1402.99 328.72 1399.17 335.827 1397.79 344.84H1466.69C1465.3 336 1461.49 328.98 1455.25 323.78C1449.01 318.407 1441.38 315.72 1432.37 315.72ZM1616.93 285.04C1634.26 285.04 1648.22 290.24 1658.79 300.64C1669.54 311.04 1674.91 326.467 1674.91 346.92V427H1634.35V353.16C1634.35 342.067 1631.92 333.833 1627.07 328.46C1622.22 322.913 1615.2 320.14 1606.01 320.14C1595.78 320.14 1587.64 323.347 1581.57 329.76C1575.5 336 1572.47 345.36 1572.47 357.84V427H1531.91V287.12H1570.65V303.5C1576.02 297.607 1582.7 293.1 1590.67 289.98C1598.64 286.687 1607.4 285.04 1616.93 285.04ZM1861.75 319.1C1877.7 321.7 1889.92 327.68 1898.41 337.04C1906.9 346.227 1911.15 357.667 1911.15 371.36C1911.15 381.933 1908.38 391.727 1902.83 400.74C1897.28 409.58 1888.79 416.687 1877.35 422.06C1866.08 427.433 1852.22 430.12 1835.75 430.12C1822.92 430.12 1810.27 428.473 1797.79 425.18C1785.48 421.713 1775 416.86 1766.33 410.62L1782.71 378.38C1789.64 383.58 1797.62 387.653 1806.63 390.6C1815.82 393.373 1825.18 394.76 1834.71 394.76C1845.28 394.76 1853.6 392.767 1859.67 388.78C1865.74 384.62 1868.77 378.813 1868.77 371.36C1868.77 356.453 1857.42 349 1834.71 349H1815.47V321.18L1852.91 278.8H1775.43V245H1902.83V272.3L1861.75 319.1ZM2018.22 312.86C2029.83 312.86 2040.4 315.2 2049.94 319.88C2059.47 324.56 2067.01 331.233 2072.56 339.9C2078.1 348.393 2080.88 358.273 2080.88 369.54C2080.88 381.673 2077.84 392.333 2071.78 401.52C2065.71 410.707 2057.39 417.813 2046.82 422.84C2036.42 427.693 2024.8 430.12 2011.98 430.12C1986.5 430.12 1966.56 422.32 1952.18 406.72C1937.79 391.12 1930.6 368.847 1930.6 339.9C1930.6 319.273 1934.5 301.593 1942.3 286.86C1950.1 272.127 1960.93 260.947 1974.8 253.32C1988.84 245.693 2005.04 241.88 2023.42 241.88C2033.12 241.88 2042.4 243.007 2051.24 245.26C2060.25 247.34 2067.88 250.373 2074.12 254.36L2058.52 285.3C2049.5 279.233 2038.15 276.2 2024.46 276.2C2009.03 276.2 1996.81 280.707 1987.8 289.72C1978.78 298.733 1973.93 311.82 1973.24 328.98C1983.98 318.233 1998.98 312.86 2018.22 312.86ZM2009.64 398.66C2018.65 398.66 2025.93 396.233 2031.48 391.38C2037.2 386.527 2040.06 379.94 2040.06 371.62C2040.06 363.3 2037.2 356.713 2031.48 351.86C2025.93 346.833 2018.48 344.32 2009.12 344.32C1999.93 344.32 1992.39 346.92 1986.5 352.12C1980.6 357.147 1977.66 363.647 1977.66 371.62C1977.66 379.593 1980.52 386.093 1986.24 391.12C1991.96 396.147 1999.76 398.66 2009.64 398.66ZM2158.54 313.38C2184.2 313.38 2203.09 318.493 2215.22 328.72C2227.53 338.947 2233.68 352.64 2233.68 369.8C2233.68 380.893 2230.91 391.033 2225.36 400.22C2219.82 409.233 2211.32 416.513 2199.88 422.06C2188.62 427.433 2174.66 430.12 2158.02 430.12C2145.2 430.12 2132.54 428.473 2120.06 425.18C2107.76 421.713 2097.27 416.86 2088.6 410.62L2105.24 378.38C2112.18 383.58 2120.15 387.653 2129.16 390.6C2138.18 393.373 2147.45 394.76 2156.98 394.76C2167.56 394.76 2175.88 392.68 2181.94 388.52C2188.01 384.36 2191.04 378.553 2191.04 371.1C2191.04 363.3 2187.84 357.407 2181.42 353.42C2175.18 349.433 2164.26 347.44 2148.66 347.44H2102.12L2111.48 245H2222.5V278.8H2146.58L2143.72 313.38H2158.54Z" fill="#D32F2F"/>
<path d="M346.99 365C351.912 365 356 369.062 356 373.96C356 376.358 355.048 378.657 353.353 380.352C351.658 382.048 349.359 383 346.961 383C342.065 383 337.996 378.915 338 373.991C338.013 371.61 338.964 369.331 340.647 367.647C342.33 365.964 344.609 365.013 346.99 365ZM343.788 373.932C343.775 374.569 343.951 375.196 344.294 375.733C344.636 376.27 345.13 376.693 345.713 376.95C346.296 377.207 346.942 377.285 347.569 377.174C348.197 377.064 348.777 376.771 349.238 376.331C349.699 375.891 350.019 375.324 350.158 374.702C350.297 374.081 350.248 373.432 350.019 372.838C349.789 372.243 349.389 371.73 348.868 371.363C348.348 370.996 347.73 370.792 347.093 370.776C346.237 370.761 345.41 371.084 344.79 371.675C344.17 372.265 343.808 373.076 343.781 373.932H343.788Z" fill="#FF0000"/>
<circle cx="426.5" cy="373.5" r="16.5" fill="#F5C1C1"/>
<circle cx="426.5" cy="373.5" r="10.5" fill="#D32F2F"/>
<path d="M459.561 370.56C462.933 370.56 458 370.56 459.561 370.56C458.061 370.621 450.53 370.56 449 370.56C448.547 362.883 443.5 357.977 440 355.621C436.5 353.266 431.163 351.248 426.488 351.457C417.16 351.793 405.46 355.974 404.5 370.56H369C368.5 367.5 368 362.5 362 358H405.942V354.558C405.942 338.003 405.942 321.449 405.942 304.895C405.942 300.409 407.878 298.479 412.385 298.479C417.975 298.479 423.569 298.479 429.163 298.479C430.255 298.445 431.341 298.674 432.327 299.146C433.313 299.619 434.171 300.321 434.83 301.194C440.333 308.104 445.85 315.002 451.38 321.888C453.2 324.112 454.173 326.909 454.128 329.783C454.108 338.394 454.128 347.004 454.128 355.621V357.581C456.812 357.205 458.447 358.403 459.567 360.494L459.561 370.56ZM428.082 325.33C431.438 325.33 434.793 325.33 438.149 325.31C438.598 325.31 439.363 325.109 439.421 324.867C439.459 324.611 439.446 324.349 439.382 324.098C439.318 323.847 439.204 323.611 439.048 323.404C435.595 319.015 432.139 314.626 428.565 310.338C427.882 309.636 426.965 309.211 425.988 309.143C423.371 308.985 420.74 309.12 418.116 309.066C416.968 309.042 416.522 309.452 416.532 310.623C416.575 314.981 416.575 319.337 416.532 323.693C416.532 324.934 416.988 325.371 418.21 325.351C421.492 325.297 424.787 325.33 428.082 325.33Z" fill="white"/>
<path d="M330.706 341.481V335.924H288.188C288.631 335.39 289.691 335.315 290 335C292.802 332.188 295.124 329.235 298 326.5C298.639 325.933 299.147 326.041 300 326C304.805 325.916 309.566 326 314.583 326V320.035H335.998V314.478H288C289.651 312.852 292.351 311.626 294 310C296.381 307.651 296.342 306.396 298.5 305.5C300.658 304.604 305.49 304.513 308 304.5C310.782 304.5 311.69 304.257 314.62 304.257V298.529H330.68V293.046L288.5 293C289.674 291.785 290.621 291.399 291.5 290.5C293.708 288.279 295.688 285.627 298 283.5C298.683 282.904 299.095 283.043 300 283C304.862 282.909 310.138 282.466 315 282.5C315.956 282.5 316.247 282.218 316.878 281.362C319.039 278.426 322.036 277 325.687 277C346.939 277 368.191 277 389.443 277C395.65 277 400.422 281.6 400.432 287.701C400.466 308.729 400.466 329.758 400.432 350.786C400.432 351.121 400.399 351.457 400.372 351.94C399.811 351.97 399.274 352.021 398.738 352.021C372.289 352.021 345.84 352.021 319.391 352.021C316.173 352.021 314.694 350.521 314.67 347.286C314.67 345.4 314.67 343.511 314.67 341.471L330.706 341.481Z" fill="white"/>
<path d="M332 358.021C327.457 361.682 325.29 365.945 324.984 370.958C322.737 370.958 320.559 371.073 318.412 370.923C316.456 370.786 315.114 369.469 315.057 367.827C314.983 365.6 314.979 363.365 315.057 361.139C315.114 359.464 316.6 358.092 318.606 358.049C322.945 357.958 327.283 358.021 332 358.021Z" fill="white"/>
<path d="M298.5 304L288 314.5H315.5V304H298.5Z" fill="white"/>
<path d="M298.5 325.5L288 336L315.5 335.915V325.5H298.5Z" fill="white"/>
<path d="M298.5 282.5L288 293H315.5V282.5H298.5Z" fill="white"/>
<circle cx="346.5" cy="373.5" r="16.5" fill="#F5C1C1"/>
<circle cx="346.5" cy="373.5" r="10.5" fill="#D32F2F"/>
<path d="M364 296V306.5H344V322.5H364V333L392.5 314.5L364 296Z" fill="#D32F2F"/>
</svg>
