<?xml version="1.0" encoding="utf-8"?><svg xmlns="http://www.w3.org/2000/svg" xmlns:xlink="http://www.w3.org/1999/xlink"><symbol viewBox="0 0 24 24" id="calendar" xmlns="http://www.w3.org/2000/svg"><path d="M18.094 10.781a.937.937 0 100-1.875.937.937 0 000 1.875z"/><path d="M20.25 1.875h-1.219V.937a.937.937 0 10-1.875 0v.938h-4.265V.937a.937.937 0 10-1.875 0v.938h-4.22V.937a.937.937 0 10-1.874 0v.938H3.75A3.754 3.754 0 000 5.625V20.25A3.754 3.754 0 003.75 24h7.172a.937.937 0 100-1.875H3.75a1.877 1.877 0 01-1.875-1.875V5.625c0-1.034.841-1.875 1.875-1.875h1.172v.938a.937.937 0 101.875 0V3.75h4.219v.938a.937.937 0 101.875 0V3.75h4.265v.938a.938.938 0 001.875 0V3.75h1.219c1.034 0 1.875.841 1.875 1.875v5.344a.937.937 0 001.875 0V5.625a3.754 3.754 0 00-3.75-3.75z"/><path d="M18.328 12.656a5.678 5.678 0 00-5.672 5.672A5.678 5.678 0 0018.328 24 5.678 5.678 0 0024 18.328a5.678 5.678 0 00-5.672-5.672zm0 9.469a3.801 3.801 0 01-3.797-3.797 3.801 3.801 0 013.797-3.797 3.801 3.801 0 013.797 3.797 3.801 3.801 0 01-3.797 3.797z"/><path d="M19.688 17.39h-.422v-.984a.937.937 0 00-1.875 0v1.922c0 .518.42.938.937.938h1.36a.937.937 0 100-1.875zm-5.672-6.609a.937.937 0 100-1.875.937.937 0 000 1.875zM9.938 14.86a.938.938 0 100-1.876.938.938 0 000 1.875zM5.86 10.781a.937.937 0 100-1.875.937.937 0 000 1.875zm0 4.079a.938.938 0 100-1.876.938.938 0 000 1.875zm0 4.078a.937.937 0 100-1.875.937.937 0 000 1.875zm4.078 0a.937.937 0 100-1.875.937.937 0 000 1.875zm0-8.157a.937.937 0 100-1.875.937.937 0 000 1.875z"/></symbol><symbol viewBox="0 0 18 18" id="fb" xmlns="http://www.w3.org/2000/svg"><path d="M18.8 10.22h-2v-.93c0-.178.013-.293.03-.367a.4.4 0 01.013-.043c.046-.021.173-.06.457-.06h2.59V4.224l-.891-.098c-.8-.088-1.604-.13-2.408-.126a4.64 4.64 0 00-4.911 5.048v1.202h-2.6v5h2.6V21H3.1a.1.1 0 01-.1-.1V3.1a.1.1 0 01.1-.1h17.8a.1.1 0 01.092.062A.1.1 0 0121 3.1v17.8a.101.101 0 01-.062.092.101.101 0 01-.038.008h-4.1v-5.78h2.488l.114-.871.39-3 .146-1.129H18.8zm-1.95-1.358v.001-.001zm-.021.025l-.008.006s.002-.003.008-.006z"/></symbol><symbol viewBox="0 0 21.69 22.1" id="google-pl" xmlns="http://www.w3.org/2000/svg"><path d="M22.602 10.004a1 1 0 00-.984-.822H12.2a1 1 0 00-1 1v3.868a1 1 0 001 1h3.962a3.656 3.656 0 01-1.131 1.187 5.06 5.06 0 01-2.831.786 4.935 4.935 0 01-4.646-3.438v-.002a4.904 4.904 0 010-3.167v-.002A4.936 4.936 0 0112.2 6.978a4.378 4.378 0 013.131 1.217 1 1 0 001.399-.015l2.868-2.868a1 1 0 00-.025-1.439A10.624 10.624 0 0012.2 1a10.95 10.95 0 00-9.829 6.059l-.001.002A10.922 10.922 0 001.2 12a11.079 11.079 0 001.17 4.94l.001.001A10.95 10.95 0 0012.2 23a10.526 10.526 0 007.295-2.687l.001-.001a10.786 10.786 0 003.304-8.084c0-.746-.066-1.49-.198-2.224zM12.2 3a8.683 8.683 0 015.209 1.673l-1.454 1.453A6.463 6.463 0 0012.2 4.978a6.887 6.887 0 00-5.99 3.55L5.142 7.7l-.585-.454A8.953 8.953 0 0112.2 3zM3.68 14.903a9.03 9.03 0 010-5.806l1.782 1.382a6.854 6.854 0 000 3.042l-1.783 1.382zM12.2 21a8.952 8.952 0 01-7.644-4.246l.379-.294 1.276-.99a6.885 6.885 0 005.989 3.553 7.277 7.277 0 003.306-.751l1.691 1.313A8.889 8.889 0 0112.2 21zm6.526-2.76l-.183-.143-1.377-1.069a5.606 5.606 0 001.4-2.795 1 1 0 00-.984-1.183H13.2v-1.868h7.549c.034.345.051.695.051 1.046a9.052 9.052 0 01-2.074 6.011z"/></symbol><symbol viewBox="0 0 20 20" id="inst" xmlns="http://www.w3.org/2000/svg"><path d="M17.34 5.46a1.2 1.2 0 100 2.4 1.2 1.2 0 000-2.4zm4.6 2.42a7.588 7.588 0 00-.46-2.43 4.94 4.94 0 00-1.16-1.77 4.7 4.7 0 00-1.77-1.15 7.3 7.3 0 00-2.43-.47C15.06 2 14.72 2 12 2s-3.06 0-4.12.06a7.3 7.3 0 00-2.43.47 4.78 4.78 0 00-1.77 1.15 4.7 4.7 0 00-1.15 1.77 7.3 7.3 0 00-.47 2.43C2 8.94 2 9.28 2 12s0 3.06.06 4.12a7.3 7.3 0 00.47 2.43 4.7 4.7 0 001.15 1.77 4.78 4.78 0 001.77 1.15 7.3 7.3 0 002.43.47C8.94 22 9.28 22 12 22s3.06 0 4.12-.06a7.3 7.3 0 002.43-.47 4.7 4.7 0 001.77-1.15 4.85 4.85 0 001.16-1.77c.285-.78.44-1.6.46-2.43 0-1.06.06-1.4.06-4.12s0-3.06-.06-4.12zM20.14 16a5.61 5.61 0 01-.34 1.86 3.06 3.06 0 01-.75 1.15c-.324.33-.717.586-1.15.75a5.61 5.61 0 01-1.86.34c-1 .05-1.37.06-4 .06s-3 0-4-.06a5.73 5.73 0 01-1.94-.3 3.27 3.27 0 01-1.1-.75 3 3 0 01-.74-1.15 5.54 5.54 0 01-.4-1.9c0-1-.06-1.37-.06-4s0-3 .06-4a5.54 5.54 0 01.35-1.9A3 3 0 015 5a3.14 3.14 0 011.1-.8A5.73 5.73 0 018 3.86c1 0 1.37-.06 4-.06s3 0 4 .06a5.61 5.61 0 011.86.34 3.06 3.06 0 011.19.8c.328.307.584.683.75 1.1.222.609.337 1.252.34 1.9.05 1 .06 1.37.06 4s-.01 3-.06 4zM12 6.87A5.13 5.13 0 1017.14 12 5.12 5.12 0 0012 6.87zm0 8.46a3.33 3.33 0 110-6.66 3.33 3.33 0 010 6.66z"/></symbol><symbol viewBox="0 0 20 20" id="search" xmlns="http://www.w3.org/2000/svg"><path d="M19.756 18.578l-5.688-5.687a7.878 7.878 0 001.765-4.973C15.833 3.553 12.281 0 7.917 0 3.552.001 0 3.553 0 7.918s3.552 7.916 7.917 7.916a7.879 7.879 0 004.973-1.765l5.687 5.688a.831.831 0 001.179 0 .832.832 0 000-1.179zm-11.84-4.41a6.256 6.256 0 01-6.25-6.25 6.256 6.256 0 016.25-6.25 6.256 6.256 0 016.25 6.25 6.256 6.256 0 01-6.25 6.25z"/></symbol><symbol viewBox="0 0 23.1 23.1" id="skype" xmlns="http://www.w3.org/2000/svg"><path d="M15.14 11.813a5.076 5.076 0 00-1.292-.593c-.28-.085-.59-.168-.91-.247-.28-.078-.612-.158-1.023-.248a9.316 9.316 0 01-1.435-.424 1.497 1.497 0 01-.616-.447.843.843 0 01-.16-.566c0-.216.072-.426.205-.597a1.6 1.6 0 01.7-.475c.457-.157.94-.23 1.423-.216.374-.006.746.043 1.106.147.238.066.463.175.663.32.13.093.24.21.325.344a1 1 0 101.761-.948 3.148 3.148 0 00-.837-.958 4.006 4.006 0 00-1.319-.669A5.768 5.768 0 0012.032 6a5.963 5.963 0 00-2.145.35A3.552 3.552 0 008.31 7.492a2.977 2.977 0 00-.604 1.797 2.839 2.839 0 00.58 1.792 3.5 3.5 0 001.438 1.072c.426.164.863.3 1.307.408.008.003.014.01.022.012.192.058.498.135.94.23.172.038.335.079.497.12.016.004.039.009.054.014l.018.002c.248.064.487.129.706.196.269.078.526.194.763.344.148.093.272.219.363.368.088.182.128.383.118.585.014.261-.061.52-.214.732a1.76 1.76 0 01-.802.585 3.787 3.787 0 01-1.487.252 3.688 3.688 0 01-1.703-.344 1.756 1.756 0 01-.616-.547 1.016 1.016 0 01-.202-.502 1 1 0 10-2 0c.017.59.21 1.16.556 1.638.346.498.806.905 1.342 1.188a5.62 5.62 0 002.623.567 5.708 5.708 0 002.254-.405 3.71 3.71 0 001.665-1.273c.4-.56.605-1.238.584-1.926a3.09 3.09 0 00-.375-1.53 3.165 3.165 0 00-.997-1.053zm7.221 1.878A10.491 10.491 0 0010.31 1.64a6.499 6.499 0 00-8.67 8.67 10.492 10.492 0 0012.05 12.05 6.499 6.499 0 008.67-8.67zM16.5 21a4.503 4.503 0 01-2.17-.558 1.004 1.004 0 00-.677-.106 8.492 8.492 0 01-9.989-9.99c.045-.231.008-.47-.106-.677A4.5 4.5 0 019.67 3.558a1 1 0 00.678.106 8.492 8.492 0 019.989 9.99c-.045.231-.008.47.106.677A4.499 4.499 0 0116.5 21z"/></symbol><symbol viewBox="0 0 16.15 16.15" id="x_v2" xmlns="http://www.w3.org/2000/svg"><path d="M.225 1.335c-.3-.3-.3-.8 0-1.11.31-.3.8-.3 1.11 0l6.661 6.67 6.672-6.67c.3-.3.8-.3 1.1 0 .31.31.31.81 0 1.11l-6.662 6.66 6.661 6.67c.31.3.31.8 0 1.11-.3.3-.8.3-1.099 0l-6.672-6.67-6.66 6.67c-.311.3-.8.3-1.11 0a.795.795 0 010-1.11l6.66-6.67-6.66-6.66z"/></symbol></svg>