<svg width="16" height="16" viewBox="0 0 16 16" fill="none" xmlns="http://www.w3.org/2000/svg">
<path d="M0.225052 1.33476C-0.0750172 1.03477 -0.0750172 0.535478 0.225052 0.224995C0.535612 -0.0749984 1.02454 -0.0749984 1.3351 0.224995L7.99607 6.89548L14.6682 0.224995C14.9683 -0.0749984 15.4677 -0.0749984 15.7671 0.224995C16.0776 0.535478 16.0776 1.03547 15.7671 1.33476L9.10611 7.99475L15.7671 14.6652C16.0776 14.9652 16.0776 15.4645 15.7671 15.775C15.467 16.075 14.9676 16.075 14.6682 15.775L7.99607 9.10452L1.3351 15.775C1.02454 16.075 0.535612 16.075 0.225052 15.775C-0.0750172 15.4645 -0.0750172 14.9645 0.225052 14.6652L6.88602 7.99475L0.225052 1.33476Z" fill="#fff"/>
</svg>
